External Loads File
version=1
nRows=32
nColumns=25
Range=5.000000e-03-10 seconds
endheader
time 	forceCrankRightX 	forceCrankRightY 	forceCrankRightZ 	pointCrankRightX 	pointCrankRightY 	pointCrankRightZ 	forceCrankLeftX 	forceCrankLeftY 	forceCrankLeftZ 	pointCrankLeftX 	pointCrankLeftY 	pointCrankLeftZ 	forceHandlebarRightX 	forceHandlebarRightY 	forceHandlebarRightZ 	pointHandlebarRightX 	pointHandlebarRightY 	pointHandlebarRightZ 	forceHandlebarLeftX 	forceHandlebarLeftY 	forceHandlebarLeftZ 	pointHandlebarLeftX 	pointHandlebarLeftY 	pointHandlebarLeftZ 		
7.505000 150.068863 819.245607 -0.000000 0.604125 0.221862 -0.130582 -14.399043 50.099347 -0.000000 0.393958 0.426289 -0.374608 16.461922 0.000000 0.000000 1.035140 1.030255 -0.081286 349.914343 0.000000 0.000000 1.008998 0.996406 -0.391616
7.510000 159.089701 837.676710 -0.000000 0.599804 0.216707 -0.130536 -14.935376 53.602259 -0.000000 0.398318 0.430986 -0.374667 3.443072 0.000000 0.000000 1.033941 1.029667 -0.081875 341.665206 0.000000 0.000000 1.006781 0.995297 -0.391707
7.515000 169.465335 855.074815 -0.000000 0.595359 0.211355 -0.130426 -15.615186 57.284291 -0.000000 0.403053 0.435626 -0.374796 -8.689920 0.000000 0.000000 1.033770 1.031391 -0.083849 332.593482 0.000000 0.000000 1.006020 0.994294 -0.393640
7.520000 178.430627 871.824371 -0.000000 0.590952 0.206554 -0.130784 -16.589532 61.034506 -0.000000 0.407844 0.440088 -0.374944 -20.734889 0.000000 0.000000 1.032672 1.030744 -0.084657 323.537220 0.000000 0.000000 1.004542 0.993276 -0.393573
7.525000 187.191315 887.555766 -0.000000 0.586305 0.202032 -0.130548 -17.713542 64.826466 -0.000000 0.412640 0.444491 -0.375082 -32.217625 0.000000 0.000000 1.033293 1.033742 -0.086587 313.960884 0.000000 0.000000 1.005064 0.993194 -0.394723
7.530000 196.794670 901.954276 -0.000000 0.581461 0.197491 -0.130337 -18.826076 68.675577 -0.000000 0.417729 0.448787 -0.375230 -44.262486 0.000000 0.000000 1.032376 1.033002 -0.087555 304.859975 0.000000 0.000000 1.003726 0.992012 -0.395341
7.535000 205.496149 915.342654 -0.000000 0.576526 0.193238 -0.130110 -20.001745 72.558796 -0.000000 0.422824 0.452808 -0.375385 -56.038333 0.000000 0.000000 1.032273 1.034890 -0.089983 295.264358 0.000000 0.000000 1.003434 0.990381 -0.397640
7.540000 213.299275 927.665950 -0.000000 0.571559 0.189376 -0.129981 -21.212465 76.493220 -0.000000 0.428048 0.456526 -0.375506 -67.896593 0.000000 0.000000 1.031491 1.033906 -0.090997 285.466338 0.000000 0.000000 1.002230 0.989203 -0.398508
7.545000 221.426415 938.526553 -0.000000 0.566550 0.185469 -0.129803 -22.292304 80.543905 -0.000000 0.433417 0.460314 -0.375617 -80.871444 0.000000 0.000000 1.030664 1.035487 -0.093757 276.316995 0.000000 0.000000 1.001909 0.987905 -0.400953
7.550000 227.119998 948.401542 -0.000000 0.561492 0.181920 -0.129501 -23.355208 84.712074 -0.000000 0.438314 0.463839 -0.375443 -94.513485 0.000000 0.000000 1.030211 1.036933 -0.095971 267.198473 0.000000 0.000000 1.002797 0.987649 -0.402203
7.555000 234.312544 956.132433 -0.000000 0.556704 0.178670 -0.129828 -23.890680 89.191780 -0.000000 0.444292 0.467317 -0.375301 -108.343558 0.000000 0.000000 1.029207 1.036721 -0.097714 257.607567 0.000000 0.000000 1.002124 0.986415 -0.404095
7.560000 238.527878 962.543213 -0.000000 0.551630 0.175466 -0.129646 -24.149603 93.969521 -0.000000 0.449164 0.470609 -0.374909 -123.363859 0.000000 0.000000 1.028649 1.037279 -0.099892 248.790862 0.000000 0.000000 1.001788 0.985323 -0.406188
7.565000 243.967096 966.289402 -0.000000 0.546561 0.172639 -0.129472 -23.639521 99.187531 -0.000000 0.454779 0.473702 -0.375439 -138.632859 0.000000 0.000000 1.028249 1.038415 -0.102022 240.170578 0.000000 0.000000 1.002291 0.984248 -0.407794
7.570000 248.583363 967.480960 -0.000000 0.541494 0.170059 -0.129210 -22.535734 104.753911 -0.000000 0.460398 0.476481 -0.375531 -154.545736 0.000000 0.000000 1.026904 1.037999 -0.104363 232.457670 0.000000 0.000000 1.001396 0.982932 -0.409869
7.575000 251.020292 966.003405 -0.000000 0.536550 0.167627 -0.129097 -21.008501 110.545609 -0.000000 0.465704 0.478720 -0.375282 -170.894002 0.000000 0.000000 1.026553 1.037783 -0.105683 225.385465 0.000000 0.000000 1.002774 0.982392 -0.411664
7.580000 255.826845 960.163453 -0.000000 0.531383 0.165357 -0.128721 -18.545348 116.543910 -0.000000 0.471690 0.481371 -0.375505 -187.347964 0.000000 0.000000 1.026403 1.039678 -0.108408 218.728051 0.000000 0.000000 1.002717 0.981402 -0.413765
7.585000 257.495085 950.933623 -0.000000 0.526332 0.163580 -0.128376 -15.796133 122.528861 -0.000000 0.477061 0.483756 -0.375275 -204.094349 0.000000 0.000000 1.025882 1.040402 -0.110685 212.993748 0.000000 0.000000 1.003354 0.980846 -0.415500
7.590000 258.659607 937.275526 -0.000000 0.521212 0.161748 -0.127562 -12.472001 128.475256 -0.000000 0.482468 0.485769 -0.374998 -220.579082 0.000000 0.000000 1.025283 1.039478 -0.112111 207.408866 0.000000 0.000000 1.004293 0.980015 -0.417529
7.595000 258.349730 919.286424 -0.000000 0.516351 0.160175 -0.127335 -8.746496 134.293541 -0.000000 0.487945 0.487898 -0.374653 -237.196428 0.000000 0.000000 1.024954 1.040343 -0.114742 202.372460 0.000000 0.000000 1.004001 0.979063 -0.419292
7.600000 256.309040 897.044699 -0.000000 0.511524 0.158966 -0.126961 -4.722084 139.904209 -0.000000 0.493274 0.489451 -0.374275 -253.614024 0.000000 0.000000 1.024638 1.040624 -0.116731 197.580092 0.000000 0.000000 1.004886 0.978292 -0.421001
7.605000 252.939898 870.601963 -0.000000 0.506804 0.157944 -0.126535 -0.372158 145.227703 -0.000000 0.498605 0.491115 -0.373849 -270.155898 0.000000 0.000000 1.024285 1.040356 -0.118615 193.018104 0.000000 0.000000 1.005624 0.977447 -0.422663
7.610000 248.537141 840.214750 -0.000000 0.502141 0.157170 -0.126108 4.349881 150.165802 -0.000000 0.503997 0.492362 -0.373424 -286.539622 0.000000 0.000000 1.023907 1.039309 -0.120199 188.249654 0.000000 0.000000 1.007165 0.976652 -0.424636
7.615000 243.423275 806.316269 -0.000000 0.497604 0.156699 -0.125812 9.478560 154.596676 -0.000000 0.509582 0.493462 -0.373299 -302.541002 0.000000 0.000000 1.023748 1.039968 -0.122325 183.252130 0.000000 0.000000 1.007446 0.975617 -0.426392
7.620000 237.175047 769.730810 -0.000000 0.492797 0.156493 -0.124860 14.849931 158.399700 -0.000000 0.514699 0.494207 -0.372720 -317.900578 0.000000 0.000000 1.023694 1.040788 -0.123929 177.640006 0.000000 0.000000 1.006757 0.974236 -0.427335
7.625000 230.244739 731.122921 -0.000000 0.488313 0.156467 -0.124380 20.402337 161.458541 -0.000000 0.520055 0.495034 -0.372263 -332.303841 0.000000 0.000000 1.023505 1.040417 -0.125374 170.996171 0.000000 0.000000 1.008001 0.973394 -0.429229
7.630000 222.666672 691.279801 -0.000000 0.483925 0.156903 -0.123817 25.929451 163.700508 -0.000000 0.525269 0.495711 -0.371669 -346.252321 0.000000 0.000000 1.023353 1.039535 -0.126549 164.855440 0.000000 0.000000 1.009931 0.972940 -0.431196
7.635000 216.172340 650.312276 -0.000000 0.479538 0.157290 -0.123320 31.598731 165.059533 -0.000000 0.531019 0.495912 -0.371568 -358.702191 0.000000 0.000000 1.022822 1.038876 -0.128012 158.258191 0.000000 0.000000 1.010835 0.972216 -0.432751
7.640000 208.787869 609.284819 -0.000000 0.475249 0.157966 -0.122869 36.680286 165.724013 -0.000000 0.536327 0.495852 -0.371313 -370.370918 0.000000 0.000000 1.023275 1.038766 -0.129019 151.921669 0.000000 0.000000 1.012478 0.971926 -0.434254
7.645000 201.333009 567.900290 -0.000000 0.471073 0.158876 -0.122576 41.151931 165.844480 -0.000000 0.541790 0.495880 -0.371196 -380.543603 0.000000 0.000000 1.023238 1.038924 -0.130249 145.545970 0.000000 0.000000 1.013405 0.971620 -0.435731
7.650000 192.873106 525.870867 -0.000000 0.466846 0.159774 -0.122245 44.582538 165.695240 -0.000000 0.546913 0.495317 -0.371405 -390.035483 0.000000 0.000000 1.023794 1.038407 -0.131155 139.544044 0.000000 0.000000 1.015392 0.971254 -0.437243
7.655000 183.682477 482.206993 -0.000000 0.462686 0.161309 -0.122131 46.935284 165.463417 -0.000000 0.552423 0.494513 -0.371310 -400.459843 0.000000 0.000000 1.024890 1.039157 -0.131601 133.059777 0.000000 0.000000 1.015852 0.970832 -0.437414
7.660000 172.195115 437.146739 -0.000000 0.458520 0.162779 -0.121822 47.488567 165.526874 -0.000000 0.557739 0.493473 -0.371362 -411.793747 0.000000 0.000000 1.025967 1.038557 -0.132021 127.264670 0.000000 0.000000 1.017954 0.970491 -0.438221
